<svg width="512" height="512" viewBox="0 0 512 512" fill="none" xmlns="http://www.w3.org/2000/svg">
<path d="M269.434 372.763C271.967 399.995 250.796 422.25 224.811 421.997C198.55 421.745 178.148 398.974 180.932 372.221C184.562 337.327 200.364 286.782 211.328 252.682C213.394 246.242 218.46 242.071 224.811 241.92C231.163 241.769 236.846 245.915 239.001 252.631C249.511 285.383 266.283 338.827 269.434 372.775V372.763Z" fill="#FF7582"/>
<path d="M14 335.4V316.498C16.7976 289.455 21.9264 262.588 33.3813 237.359L112.948 283.368C106.357 298.956 103.043 314.872 102.93 331.594C102.804 339.105 97.8261 344.889 90.3786 346.074L29.1094 346.149C21.5484 346.149 16.7724 341.865 14 335.413L14 335.4Z" fill="#FF7582"/>
<path d="M273.771 219.289C262.72 215.168 251.769 211.791 239.344 210.304L239.318 90.5255C273.809 88.3076 307.443 93.0962 339.476 105.169L273.759 219.289H273.771Z" fill="#AD5E79"/>
<path d="M211.041 210.215C198.83 211.879 187.841 214.928 176.664 219.402L124.455 128.821C150.717 111.734 179.726 100.077 211.016 94.1543L211.041 210.215Z" fill="#C1627B"/>
<path d="M127.188 258.818L45.9199 211.902C60.2606 186.825 78.7976 164.545 101.531 145.756L152.202 233.69C142.474 241.238 135.077 248.409 127.175 258.818H127.188Z" fill="#F26878"/>
<path d="M483.249 346.049L363.117 346.15C354.41 346.15 347.92 340.958 347.378 332.099C347.416 315.478 344.076 299.247 337.41 283.394L464.069 210.115C482.694 242.035 494.124 277.043 496.216 313.575L497.149 329.843C497.338 337.556 492.625 346.037 483.249 346.037V346.049Z" fill="#69506F"/>
<path d="M323.409 258.78C315.785 249.279 307.67 240.936 298.168 233.615L365.536 116.646C397.885 133.092 425.86 156.594 448.354 186.447L323.409 258.768V258.78Z" fill="#8F5975"/>
</svg>
